# xmcd
#
# Track frame offsets: 
#        150
#        15065
#        33792
#        51950
#        65543
#        86910
#        104140
#        120082
#        134440
#        148709
#        162545
#        183799
#
# Disc length: 2883 seconds
#
# Revision: 3
# Processed by: cddbd v1.5.2PL0 Copyright (c) Steve Scherf et al.
# Submitted via: ExactAudioCopy v1.0b3
#
DISCID=9d0b410c
DTITLE=Manfred Krug - Der Weihnachtskrug
DYEAR=2002
DGENRE=Weihnachtsmusik
TTITLE0=Alle Jahre wieder
TTITLE1=Vom Himmel hoch, da komm' ich her
TTITLE2=O du fröhliche
TTITLE3=Morgen kommt der Weihnachtsmann
TTITLE4=Stille Nacht, heilige Nacht
TTITLE5=Es ist ein Ros entsprungen
TTITLE6=Kling, Glöckchen, klingelingeling
TTITLE7=Leise rieselt der Schnee
TTITLE8=Lasst uns froh und munter sein
TTITLE9=O Tannenbaum
TTITLE10=Süßer die Glocken nie klingen
TTITLE11=Am Weihnachtsbaum die Lichter brennen
EXTD=YEAR: 2002
EXTT0=
EXTT1=
EXTT2=
EXTT3=
EXTT4=
EXTT5=
EXTT6=
EXTT7=
EXTT8=
EXTT9=
EXTT10=
EXTT11=
PLAYORDER=
